# xmcd
#
# Track frame offsets:
#	150
#	18333
#	32327
#	62897
#	101099
#	129416
#	157301
#	229031
#	249094
#	276744
#	295359
#
# Disc length: 4478 seconds
# Revision: 0
# Processed by: cddbd v1.5.2PL0 Copyright (c) Steve Scherf et al.
# Submitted via: dBpowerAMP V12.0
#
DISCID=9c117c0b
DTITLE=Various Artist - Roots of Funk [CD 10)
DYEAR=2011
DGENRE=Funk
TTITLE0=Clark Terry and Paul Gonsalves - Funky
TTITLE1=King Pleasure - Funk Junction
TTITLE2=Hank Mobley - Funk in Deep Freeze
TTITLE3=Kenny Drew - Funk-Cosity
TTITLE4=Roland Kirk - Funk Underneath
TTITLE5=Donald Byrd - Pure D. Funk
TTITLE6=Jimmy Smith - Funk Oats
TTITLE7=Al Cohn Quintet Feat. Zoot Sims - Two Funky People
TTITLE8=Sonny Clark Trio - Junka
TTITLE9=Milt Jackson Quintet - Opus de Funk
TTITLE10=Gene Ammons - Funky
EXTD=
EXTT0=
EXTT1=
EXTT2=
EXTT3=
EXTT4=
EXTT5=
EXTT6=
EXTT7=
EXTT8=
EXTT9=
EXTT10=
PLAYORDER=
